<svg xmlns="http://www.w3.org/2000/svg" width="340" height="120" viewBox="0 0 340 120">
  <style>
    :root {
      --bg: #0d1117;
      --border: #30363d;
      --text-main: #f0f6fc;
      --text-muted: #8b949e;
      --accent: #818cf8;
      --lang-dot: #8b949e;
    }
    @media (prefers-color-scheme: light) {
      :root {
        --bg: #ffffff;
        --border: #d1d5db;
        --text-main: #1f2937;
        --text-muted: #4b5563;
        --accent: #4f46e5;
      }
    }
    @import url('https://fonts.googleapis.com/css2?family=Outfit:wght@400;600;700&amp;display=swap');
    .card {
      fill: var(--bg);
      stroke: var(--border);
      stroke-width: 1.5;
      rx: 8;
    }
    .title {
      font-family: 'Outfit', sans-serif;
      font-weight: 700;
      font-size: 14px;
      fill: var(--accent);
    }
    .desc {
      font-family: 'Outfit', sans-serif;
      font-weight: 400;
      font-size: 11px;
      fill: var(--text-muted);
    }
    .meta {
      font-family: 'Outfit', sans-serif;
      font-weight: 600;
      font-size: 10px;
      fill: var(--text-muted);
    }
    .lang-circle {
      fill: var(--lang-dot);
    }
  </style>
  <rect class="card" width="338" height="118" x="1" y="1"/>
  
  <!-- Repo icon (simplified book/repo logo) -->
  <path d="M 22 22 L 22 34 A 2 2 0 0 0 24 36 L 34 36 L 34 24 L 24 24 A 2 2 0 0 0 22 22 Z" fill="none" stroke="var(--accent)" stroke-width="1.5" />
  <path d="M 24 24 L 34 24" stroke="var(--accent)" stroke-width="1.5" />
  <circle cx="27" cy="29" r="0.8" fill="var(--accent)" />
  
  <!-- Title -->
  <text class="title" x="46" y="32">React-learning</text>
  
  <!-- Description (split/wrapped) -->
  <text class="desc" x="22" y="58">No description provided.</text>
  <text class="desc" x="22" y="73"></text>
  
  <!-- Footer Meta -->
  <g transform="translate(22, 98)">
    <!-- Language Dot -->
    <circle class="lang-circle" cx="5" cy="-3" r="4" fill="#f1e05a" />
    <text class="meta" x="15" y="0">JavaScript</text>
    
    <!-- Stars -->
    <g transform="translate(90, 0)">
      <!-- Star Icon -->
      <path d="M 0,-7 L 1.8,-3 L 5.5,-3 L 2.5,0 L 3.5,4 L 0,2 L -3.5,4 L -2.5,0 L -5.5,-3 L -1.8,-3 Z" fill="var(--text-muted)" />
      <text class="meta" x="9" y="0">0</text>
    </g>
    
    <!-- Forks -->
    <g transform="translate(135, 0)">
      <!-- Fork Icon -->
      <circle cx="-3" cy="-7" r="1.2" fill="none" stroke="var(--text-muted)" stroke-width="1" />
      <circle cx="3" cy="-7" r="1.2" fill="none" stroke="var(--text-muted)" stroke-width="1" />
      <circle cx="0" cy="1" r="1.2" fill="none" stroke="var(--text-muted)" stroke-width="1" />
      <path d="M -3,-5 L -3,-3 A 1.5 1.5 0 0 0 -1.5,-1.5 L 1.5,-1.5 A 1.5 1.5 0 0 0 3,-3 L 3,-5" fill="none" stroke="var(--text-muted)" stroke-width="1" />
      <path d="M 0,-1.5 L 0,0" stroke="var(--text-muted)" stroke-width="1" />
      <text class="meta" x="9" y="0">0</text>
    </g>
  </g>
</svg>